<svg width="19" height="14" viewBox="0 0 19 14" fill="none" xmlns="http://www.w3.org/2000/svg">
<path d="M18.5 1.91583C18.5 1.00247 17.7569 0.259369 16.8435 0.259369H2.15646C1.24328 0.259404 0.500316 1.00215 0.5 1.91611V1.91639V12.0836C0.5 13.0084 1.25066 13.7406 2.15703 13.7406H16.8429C17.7677 13.7406 18.5 12.99 18.5 12.0836V1.91639C18.5 1.91632 18.5 1.91625 18.5 1.91618C18.5 1.91608 18.5 1.91597 18.5 1.91583ZM2.15646 1.3141H16.8435C17.1753 1.3141 17.4453 1.58406 17.4453 1.91671C17.4453 2.09348 17.3575 2.25755 17.2101 2.35571L9.83416 7.27324C9.6312 7.40856 9.36887 7.4086 9.16587 7.27324C9.16587 7.27324 1.78971 2.3556 1.78985 2.35571C1.78989 2.35574 1.78975 2.35564 1.78971 2.3556C1.64255 2.25755 1.55469 2.09348 1.55469 1.91583C1.55469 1.58403 1.82466 1.3141 2.15646 1.3141ZM16.843 12.6859H2.15703C1.8287 12.6859 1.55469 12.4205 1.55469 12.0836V3.46655L8.5808 8.15075C8.86001 8.3369 9.18001 8.42996 9.5 8.42996C9.82003 8.42996 10.1401 8.3369 10.4192 8.15075L17.4453 3.46655V12.0836C17.4453 12.4119 17.1798 12.6859 16.843 12.6859Z" fill="white"/>
</svg>
