<svg width="9" height="16" viewBox="0 0 9 16" fill="none" xmlns="http://www.w3.org/2000/svg">
<path d="M2.57999 9.03999C2.51999 9.03999 1.19999 9.03999 0.599993 9.03999C0.279993 9.03999 0.179993 8.91999 0.179993 8.61999C0.179993 7.81999 0.179993 6.99999 0.179993 6.19999C0.179993 5.87999 0.299993 5.77999 0.599993 5.77999H2.57999C2.57999 5.71999 2.57999 4.55999 2.57999 4.01999C2.57999 3.21999 2.71999 2.45999 3.11999 1.75999C3.53999 1.03999 4.13999 0.559989 4.89999 0.279989C5.39999 0.0999889 5.89999 0.019989 6.43999 0.019989H8.39999C8.67999 0.019989 8.79999 0.139989 8.79999 0.419989V2.69999C8.79999 2.97999 8.67999 3.09999 8.39999 3.09999C7.85999 3.09999 7.31999 3.09999 6.77999 3.11999C6.23999 3.11999 5.95999 3.37999 5.95999 3.93999C5.93999 4.53999 5.95999 5.11999 5.95999 5.73999H8.27999C8.59999 5.73999 8.71999 5.85999 8.71999 6.17999V8.59999C8.71999 8.91999 8.61999 9.01999 8.27999 9.01999C7.55999 9.01999 6.01999 9.01999 5.95999 9.01999V15.54C5.95999 15.88 5.85999 16 5.49999 16C4.65999 16 3.83999 16 2.99999 16C2.69999 16 2.57999 15.88 2.57999 15.58C2.57999 13.48 2.57999 9.09999 2.57999 9.03999Z" fill="white"/>
</svg>
