<svg width="17" height="16" viewBox="0 0 17 16" fill="none" xmlns="http://www.w3.org/2000/svg">
<path d="M16.5 16V10.14C16.5 7.26 15.88 5.06 12.52 5.06C10.9 5.06 9.81997 5.94 9.37997 6.78H9.33997V5.32H6.15997V16H9.47997V10.7C9.47997 9.3 9.73997 7.96 11.46 7.96C13.16 7.96 13.18 9.54 13.18 10.78V15.98H16.5V16Z" fill="white"/>
<path d="M0.76001 5.32001H4.08001V16H0.76001V5.32001Z" fill="white"/>
<path d="M2.42 0C1.36 0 0.5 0.86 0.5 1.92C0.5 2.98 1.36 3.86 2.42 3.86C3.48 3.86 4.34 2.98 4.34 1.92C4.34 0.86 3.48 0 2.42 0Z" fill="white"/>
</svg>
